# xmcd CD database file
#
# Track frame offsets:
#	150
#	14210
#	26386
#	38498
#	50982
#	64990
#	75919
#	89780
#	101369
#	113898
#	129601
#	143052
#	156771
#	171325
#	182694
#	202490
#	217246
#
# Disc length: 3072 seconds
#
# Revision: 0
# Processed by: cddbd v1.5.2PL0 Copyright (c) Steve Scherf et al.
# Submitted via: CDex 1.51
#
DISCID=fe0bfe11
DTITLE=Glen Campbell - ICON
DYEAR=1900
DGENRE=Country
TTITLE0=Wichita Lineman
TTITLE1=By The Time I Get To Phonenix
TTITLE2=Galveston
TTITLE3=I Wanna Live
TTITLE4=Gentle On My Mind
TTITLE5=Try A Little Kindness
TTITLE6=Country Boy (You Got Your Feet In L.A.)
TTITLE7=Dreams Of The Everyday Housewife
TTITLE8=Bonaparte's Retreat
TTITLE9=These Days
TTITLE10=Southern Nights
TTITLE11=Highwayman
TTITLE12=Rhinestone Cowboy
TTITLE13=Walkin' In The Sun
TTITLE14=Amazing Grace
TTITLE15=Blessed Assurance
TTITLE16=More Than Enough
EXTD=
EXTT0=
EXTT1=
EXTT2=
EXTT3=
EXTT4=
EXTT5=
EXTT6=
EXTT7=
EXTT8=
EXTT9=
EXTT10=
EXTT11=
EXTT12=
EXTT13=
EXTT14=
EXTT15=
EXTT16=
PLAYORDER=
